<?xml version="1.0" encoding="UTF-8"?>
<svg id="objects" xmlns="http://www.w3.org/2000/svg" viewBox="0 0 645.84 473.18">
  <defs>
    <style>
      .cls-1 {
        fill: #3d4547;
      }

      .cls-1, .cls-2, .cls-3, .cls-4, .cls-5, .cls-6, .cls-7, .cls-8, .cls-9, .cls-10, .cls-11, .cls-12, .cls-13, .cls-14, .cls-15, .cls-16, .cls-17, .cls-18, .cls-19, .cls-20, .cls-21, .cls-22, .cls-23, .cls-24 {
        stroke-width: 0px;
      }

      .cls-25 {
        stroke: #e15d46;
      }

      .cls-25, .cls-26, .cls-27, .cls-28, .cls-29, .cls-30 {
        fill: none;
        stroke-miterlimit: 10;
      }

      .cls-25, .cls-27 {
        stroke-linecap: round;
      }

      .cls-2 {
        fill: #504972;
      }

      .cls-3 {
        fill: #368779;
      }

      .cls-4 {
        fill: #e15d46;
      }

      .cls-26 {
        stroke: #38ad86;
      }

      .cls-5 {
        fill: #9b9b9b;
      }

      .cls-6 {
        fill: #4bc136;
      }

      .cls-27 {
        stroke: #576063;
      }

      .cls-7 {
        fill: #53bc8a;
      }

      .cls-8 {
        fill: #684d60;
      }

      .cls-9 {
        fill: #576063;
      }

      .cls-10 {
        fill: #c95739;
      }

      .cls-11 {
        fill: #454d4f;
      }

      .cls-12 {
        fill: #efeced;
      }

      .cls-28 {
        stroke: #2c7c5f;
      }

      .cls-29 {
        stroke: #3d4547;
      }

      .cls-29, .cls-30 {
        stroke-width: 2px;
      }

      .cls-13 {
        fill: #c5eff9;
      }

      .cls-13, .cls-15, .cls-16 {
        opacity: .2;
      }

      .cls-14 {
        fill: #335a72;
      }

      .cls-15 {
        fill: #94cddd;
      }

      .cls-16 {
        fill: #f5f3f1;
      }

      .cls-17 {
        fill: #96d139;
      }

      .cls-18 {
        fill: #e5c62c;
      }

      .cls-19 {
        fill: #43af2c;
      }

      .cls-20 {
        fill: #e29733;
      }

      .cls-30 {
        stroke: #3c4547;
      }

      .cls-21 {
        fill: #c9c6c7;
      }

      .cls-22 {
        fill: #ce4d3c;
      }

      .cls-23 {
        fill: #38ad86;
      }

      .cls-24 {
        fill: #eff5ef;
      }
    </style>
  </defs>
  <g>
    <rect class="cls-12" x="166.57" y="105.33" width="271.4" height="176.99" rx="8.5" ry="8.5"/>
    <rect class="cls-21" x="266.08" y="222.62" width="72.37" height="48.85" rx="1" ry="1"/>
    <rect class="cls-21" x="194.22" y="120.73" width="213.5" height="92.84" rx=".75" ry=".75"/>
    <rect class="cls-1" x="197.72" y="124.12" width="12.67" height="5.88" rx=".75" ry=".75"/>
    <rect class="cls-1" x="213.1" y="124.12" width="12.67" height="5.88" rx=".75" ry=".75"/>
    <rect class="cls-1" x="227.58" y="124.12" width="12.67" height="5.88" rx=".75" ry=".75"/>
    <rect class="cls-1" x="242.96" y="124.12" width="12.67" height="5.88" rx=".75" ry=".75"/>
    <rect class="cls-1" x="257.66" y="124.12" width="12.67" height="5.88" rx=".75" ry=".75"/>
    <rect class="cls-1" x="273.04" y="124.12" width="12.67" height="5.88" rx=".75" ry=".75"/>
    <rect class="cls-1" x="287.51" y="124.12" width="12.67" height="5.88" rx=".75" ry=".75"/>
    <rect class="cls-1" x="302.89" y="124.12" width="12.67" height="5.88" rx=".75" ry=".75"/>
    <rect class="cls-1" x="363.51" y="203.05" width="12.67" height="5.88" rx=".75" ry=".75"/>
    <rect class="cls-1" x="378.88" y="203.05" width="12.67" height="5.88" rx=".75" ry=".75"/>
    <rect class="cls-1" x="377.53" y="124.12" width="12.67" height="5.88" rx=".75" ry=".75"/>
    <rect class="cls-1" x="392.91" y="124.12" width="12.67" height="5.88" rx=".75" ry=".75"/>
    <rect class="cls-1" x="317.82" y="124.12" width="12.67" height="5.88" rx=".75" ry=".75"/>
    <rect class="cls-1" x="333.2" y="124.12" width="12.67" height="5.88" rx=".75" ry=".75"/>
    <rect class="cls-1" x="347.67" y="124.12" width="12.67" height="5.88" rx=".75" ry=".75"/>
    <rect class="cls-1" x="363.05" y="124.12" width="12.67" height="5.88" rx=".75" ry=".75"/>
    <rect class="cls-1" x="378.88" y="195.14" width="12.67" height="5.88" rx=".75" ry=".75"/>
    <rect class="cls-1" x="392.91" y="203.05" width="12.67" height="5.88" rx=".75" ry=".75"/>
    <rect class="cls-1" x="198.29" y="133.85" width="11.53" height="11.53" rx=".41" ry=".41"/>
    <rect class="cls-1" x="213.67" y="133.85" width="11.53" height="11.53" rx=".41" ry=".41"/>
    <rect class="cls-1" x="227.58" y="133.85" width="11.53" height="11.53" rx=".41" ry=".41"/>
    <rect class="cls-1" x="242.96" y="133.85" width="11.53" height="11.53" rx=".41" ry=".41"/>
    <rect class="cls-1" x="257.6" y="133.85" width="11.53" height="11.53" rx=".41" ry=".41"/>
    <rect class="cls-1" x="272.98" y="133.85" width="11.53" height="11.53" rx=".41" ry=".41"/>
    <rect class="cls-1" x="286.89" y="133.85" width="11.53" height="11.53" rx=".41" ry=".41"/>
    <rect class="cls-1" x="302.27" y="133.85" width="11.53" height="11.53" rx=".41" ry=".41"/>
    <rect class="cls-1" x="315.56" y="133.85" width="11.53" height="11.53" rx=".41" ry=".41"/>
    <rect class="cls-1" x="330.94" y="133.85" width="11.53" height="11.53" rx=".41" ry=".41"/>
    <rect class="cls-1" x="344.85" y="133.85" width="11.53" height="11.53" rx=".41" ry=".41"/>
    <rect class="cls-1" x="360.23" y="133.85" width="11.53" height="11.53" rx=".41" ry=".41"/>
    <rect class="cls-1" x="217.63" y="150.02" width="11.53" height="11.53" rx=".41" ry=".41"/>
    <rect class="cls-1" x="233.01" y="150.02" width="11.53" height="11.53" rx=".41" ry=".41"/>
    <rect class="cls-1" x="246.91" y="150.02" width="11.53" height="11.53" rx=".41" ry=".41"/>
    <rect class="cls-1" x="262.29" y="150.02" width="11.53" height="11.53" rx=".41" ry=".41"/>
    <rect class="cls-1" x="276.94" y="150.02" width="11.53" height="11.53" rx=".41" ry=".41"/>
    <rect class="cls-1" x="292.32" y="150.02" width="11.53" height="11.53" rx=".41" ry=".41"/>
    <rect class="cls-1" x="306.23" y="150.02" width="11.53" height="11.53" rx=".41" ry=".41"/>
    <rect class="cls-1" x="321.61" y="150.02" width="11.53" height="11.53" rx=".41" ry=".41"/>
    <rect class="cls-1" x="334.89" y="150.02" width="11.53" height="11.53" rx=".41" ry=".41"/>
    <rect class="cls-1" x="350.27" y="150.02" width="11.53" height="11.53" rx=".41" ry=".41"/>
    <rect class="cls-1" x="364.18" y="150.02" width="11.53" height="11.53" rx=".41" ry=".41"/>
    <rect class="cls-1" x="379.56" y="150.02" width="11.53" height="11.53" rx=".41" ry=".41"/>
    <rect class="cls-1" x="222.49" y="165.06" width="11.53" height="11.53" rx=".41" ry=".41"/>
    <rect class="cls-1" x="237.87" y="165.06" width="11.53" height="11.53" rx=".41" ry=".41"/>
    <rect class="cls-1" x="251.78" y="165.06" width="11.53" height="11.53" rx=".41" ry=".41"/>
    <rect class="cls-1" x="267.16" y="165.06" width="11.53" height="11.53" rx=".41" ry=".41"/>
    <rect class="cls-1" x="281.8" y="165.06" width="11.53" height="11.53" rx=".41" ry=".41"/>
    <rect class="cls-1" x="297.18" y="165.06" width="11.53" height="11.53" rx=".41" ry=".41"/>
    <rect class="cls-1" x="311.09" y="165.06" width="11.53" height="11.53" rx=".41" ry=".41"/>
    <rect class="cls-1" x="326.47" y="165.06" width="11.53" height="11.53" rx=".41" ry=".41"/>
    <rect class="cls-1" x="339.76" y="165.06" width="11.53" height="11.53" rx=".41" ry=".41"/>
    <rect class="cls-1" x="355.14" y="165.06" width="11.53" height="11.53" rx=".41" ry=".41"/>
    <rect class="cls-1" x="369.05" y="165.06" width="11.53" height="11.53" rx=".41" ry=".41"/>
    <rect class="cls-1" x="374.81" y="133.85" width="11.53" height="11.53" rx=".41" ry=".41"/>
    <rect class="cls-1" x="230.12" y="181.23" width="11.53" height="11.53" rx=".41" ry=".41"/>
    <rect class="cls-1" x="245.5" y="181.23" width="11.53" height="11.53" rx=".41" ry=".41"/>
    <rect class="cls-1" x="259.41" y="181.23" width="11.53" height="11.53" rx=".41" ry=".41"/>
    <rect class="cls-1" x="274.79" y="181.23" width="11.53" height="11.53" rx=".41" ry=".41"/>
    <rect class="cls-1" x="289.43" y="181.23" width="11.53" height="11.53" rx=".41" ry=".41"/>
    <rect class="cls-1" x="304.81" y="181.23" width="11.53" height="11.53" rx=".41" ry=".41"/>
    <rect class="cls-1" x="318.72" y="181.23" width="11.53" height="11.53" rx=".41" ry=".41"/>
    <rect class="cls-1" x="334.1" y="181.23" width="11.53" height="11.53" rx=".41" ry=".41"/>
    <rect class="cls-1" x="347.39" y="181.23" width="11.53" height="11.53" rx=".41" ry=".41"/>
    <rect class="cls-1" x="362.77" y="181.23" width="11.53" height="11.53" rx=".41" ry=".41"/>
    <rect class="cls-1" x="393.47" y="150.02" width="11.53" height="11.53" rx=".41" ry=".41"/>
    <rect class="cls-1" x="349.37" y="197.29" width="11.53" height="11.53" rx=".41" ry=".41"/>
    <rect class="cls-1" x="198.29" y="150.02" width="15.38" height="11.53" rx=".37" ry=".37"/>
    <rect class="cls-1" x="198.29" y="165.06" width="20.24" height="11.53" rx=".37" ry=".37"/>
    <rect class="cls-1" x="198.29" y="181.23" width="29.29" height="11.53" rx=".37" ry=".37"/>
    <rect class="cls-1" x="197.72" y="197.29" width="19.9" height="11.53" rx=".37" ry=".37"/>
    <rect class="cls-1" x="221.47" y="197.29" width="15.38" height="11.53" rx=".37" ry=".37"/>
    <rect class="cls-1" x="241.6" y="197.29" width="15.38" height="11.53" rx=".38" ry=".38"/>
    <rect class="cls-1" x="385.22" y="165.06" width="18.77" height="11.53" rx=".37" ry=".37"/>
    <rect class="cls-1" x="390.19" y="133.85" width="15.38" height="11.53" rx=".37" ry=".37"/>
    <rect class="cls-1" x="331.84" y="197.29" width="13" height="11.53" rx=".37" ry=".37"/>
    <rect class="cls-1" x="259.44" y="197.29" width="67.03" height="11.53" rx=".37" ry=".37"/>
    <rect class="cls-1" x="376.45" y="180.66" width="29.29" height="11.53" rx=".38" ry=".38"/>
    <path class="cls-1" d="M407.72,105.33h-213.5c0,4.66,3.78,8.44,8.44,8.44h196.63c4.66,0,8.44-3.78,8.44-8.44h0Z"/>
    <rect class="cls-12" x="150.81" y="94.75" width="299" height="12.06" rx="5.29" ry="5.29"/>
    <path class="cls-21" d="M447.17,101.4H153.46c-1.46,0-2.65,1.18-2.65,2.65h0c0,1.46,1.18,2.65,2.65,2.65h293.71c1.46,0,2.65-1.18,2.65-2.65h0c0-1.46-1.18-2.65-2.65-2.65Z"/>
    <path class="cls-5" d="M433.24,103.85H168.7c-.82,0-1.48.66-1.48,1.48h0c0,.82.66,1.48,1.48,1.48h264.54c.82,0,1.48-.66,1.48-1.48h0c0-.82-.66-1.48-1.48-1.48Z"/>
  </g>
  <g>
    <path class="cls-9" d="M175.36,305.53h256.89c4.85,0,8.8,3.94,8.8,8.8v147.4c0,4.85-3.94,8.8-8.8,8.8H175.36c-4.85,0-8.8-3.94-8.8-8.8v-147.4c0-4.85,3.94-8.8,8.8-8.8Z"/>
    <rect class="cls-1" x="216.91" y="320.85" width="205.49" height="134.34" rx=".55" ry=".55"/>
    <circle class="cls-1" cx="191.41" cy="388.02" r="13.5"/>
    <path class="cls-1" d="M196.23,355.93h-9.64c-1.46,0-2.65-1.19-2.65-2.65h0c0-1.46,1.19-2.65,2.65-2.65h9.64c1.46,0,2.65,1.19,2.65,2.65h0c0,1.46-1.19,2.65-2.65,2.65Z"/>
    <path class="cls-1" d="M196.23,347.05h-9.64c-1.46,0-2.65-1.19-2.65-2.65h0c0-1.46,1.19-2.65,2.65-2.65h9.64c1.46,0,2.65,1.19,2.65,2.65h0c0,1.46-1.19,2.65-2.65,2.65Z"/>
    <path class="cls-1" d="M196.23,337.84h-9.64c-1.46,0-2.65-1.19-2.65-2.65h0c0-1.46,1.19-2.65,2.65-2.65h9.64c1.46,0,2.65,1.19,2.65,2.65h0c0,1.46-1.19,2.65-2.65,2.65Z"/>
    <path class="cls-1" d="M196.23,328.97h-9.64c-1.46,0-2.65-1.19-2.65-2.65h0c0-1.46,1.19-2.65,2.65-2.65h9.64c1.46,0,2.65,1.19,2.65,2.65h0c0,1.46-1.19,2.65-2.65,2.65Z"/>
    <path class="cls-1" d="M196.23,454.76h-9.64c-1.46,0-2.65-1.19-2.65-2.65h0c0-1.46,1.19-2.65,2.65-2.65h9.64c1.46,0,2.65,1.19,2.65,2.65h0c0,1.46-1.19,2.65-2.65,2.65Z"/>
    <path class="cls-1" d="M196.23,445.89h-9.64c-1.46,0-2.65-1.19-2.65-2.65h0c0-1.46,1.19-2.65,2.65-2.65h9.64c1.46,0,2.65,1.19,2.65,2.65h0c0,1.46-1.19,2.65-2.65,2.65Z"/>
    <path class="cls-1" d="M196.23,436.68h-9.64c-1.46,0-2.65-1.19-2.65-2.65h0c0-1.46,1.19-2.65,2.65-2.65h9.64c1.46,0,2.65,1.19,2.65,2.65h0c0,1.46-1.19,2.65-2.65,2.65Z"/>
    <path class="cls-1" d="M196.23,427.81h-9.64c-1.46,0-2.65-1.19-2.65-2.65h0c0-1.46,1.19-2.65,2.65-2.65h9.64c1.46,0,2.65,1.19,2.65,2.65h0c0,1.46-1.19,2.65-2.65,2.65Z"/>
    <path class="cls-11" d="M198.16,388.02c0,3.73-3.02,6.75-6.75,6.75s-6.75-3.02-6.75-6.75,3.02-6.75,6.75-6.75,6.75,3.02,6.75,6.75Z"/>
    <rect class="cls-1" x="441.05" y="381.27" width="11.76" height="10.77"/>
    <rect class="cls-1" x="437.97" y="133.85" width="19.51" height="16.17"/>
    <path class="cls-29" d="M457.48,141.93s65.12-8.9,70.74,61.08c1.95,24.27-6.99,47.95-23.3,66.03-9.95,11.04-17.51,30.32-2.65,61.77,14.9,31.53-13.85,66.6-47.58,57.73-.62-.16-1.25-.34-1.88-.52"/>
  </g>
  <g>
    <circle class="cls-12" cx="598.31" cy="181.37" r="47.52" transform="translate(-7.84 334.52) rotate(-31.04)"/>
    <circle class="cls-21" cx="598.31" cy="181.37" r="37.49" transform="translate(-26.88 178.58) rotate(-16.61)"/>
    <circle class="cls-12" cx="598.31" cy="181.23" r="31.73"/>
    <circle class="cls-22" cx="598.31" cy="181.37" r="28.96" transform="translate(46.99 476.19) rotate(-45)"/>
    <circle class="cls-4" cx="598.31" cy="184.43" r="24.39" transform="translate(-24.66 246.89) rotate(-22.86)"/>
    <path class="cls-12" d="M627.14,167.62l-10.32-10.32,11.3-11.3c2.85-2.85,7.47-2.85,10.32,0h0c2.85,2.85,2.85,7.47,0,10.32l-11.3,11.3Z"/>
  </g>
  <g>
    <rect class="cls-12" x="580.15" y="271.47" width="36.32" height="61.07" rx="16.72" ry="16.72"/>
    <path class="cls-21" d="M598.35,291.35h0c-1.48,0-2.68-1.2-2.68-2.68v-3.66c0-1.48,1.2-2.68,2.68-2.68h0c1.48,0,2.68,1.2,2.68,2.68v3.66c0,1.48-1.2,2.68-2.68,2.68Z"/>
  </g>
  <g>
    <rect class="cls-4" y="134.41" width="102.54" height="135.24" rx="1.71" ry="1.71"/>
    <rect class="cls-22" x="10.49" y="134.41" width="6.26" height="135.24"/>
    <rect class="cls-9" x="67.91" y="134.41" width="12.52" height="135.24"/>
    <polygon class="cls-12" points="42.07 286.26 36.79 277.95 31.51 286.26 31.51 269.64 42.07 269.64 42.07 286.26"/>
  </g>
  <g>
    <rect class="cls-9" x="528.48" y="375.84" width="11.91" height="82.71"/>
    <polygon class="cls-1" points="528.48 375.84 534.44 359.72 540.39 375.84 528.48 375.84"/>
    <path class="cls-1" d="M534.44,473.18h0c-3.29,0-5.95-2.67-5.95-5.95v-8.67h11.91v8.67c0,3.29-2.67,5.95-5.95,5.95Z"/>
    <path class="cls-1" d="M534.44,423.88h0c-.66,0-1.2-.54-1.2-1.2v-35.94c0-.66.54-1.2,1.2-1.2h0c.66,0,1.2.54,1.2,1.2v35.94c0,.66-.54,1.2-1.2,1.2Z"/>
  </g>
  <g>
    <rect class="cls-23" x="126.71" y="161.52" width="8.27" height="80.28"/>
    <polygon class="cls-12" points="126.71 161.52 130.85 148.14 134.99 161.52 126.71 161.52"/>
    <polygon class="cls-1" points="128.78 154.83 132.92 154.83 130.85 148.14 128.78 154.83"/>
    <path class="cls-22" d="M130.85,252.39h0c-2.28,0-4.14-1.85-4.14-4.14v-6.46h8.27v6.46c0,2.28-1.85,4.14-4.14,4.14Z"/>
  </g>
  <g>
    <rect class="cls-12" x="458.02" y="199.04" width="39.65" height="39.65" transform="translate(-14.8 401.99) rotate(-45)"/>
    <polygon class="cls-21" points="497.32 227.42 493.24 218.86 500.59 213.57 505.88 218.86 497.32 227.42"/>
  </g>
  <g>
    <rect class="cls-12" x="591.26" y="372.29" width="50.44" height="88.33" rx="5" ry="5"/>
    <rect class="cls-9" x="595.39" y="377.75" width="42.16" height="69.16" rx="3.88" ry="3.88"/>
    <path class="cls-21" d="M619.28,452.96c0,1.93-1.57,3.5-3.5,3.5s-3.5-1.57-3.5-3.5,1.57-3.5,3.5-3.5,3.5,1.57,3.5,3.5Z"/>
    <circle class="cls-1" cx="615.78" cy="375.1" r="1.15"/>
    <path class="cls-1" d="M618.8,412.33h7.02c.97,0,1.52,1.11.93,1.89l-25.03,32.69h31.95c2.14,0,3.88-1.74,3.88-3.88v-59.27l-19.7,26.7c-.57.77-.02,1.87.94,1.87Z"/>
  </g>
  <g>
    <rect class="cls-24" x="40.6" y="393.06" width="74.57" height="29.38" rx="3" ry="3" transform="translate(392.98 137.49) rotate(60.19)"/>
    <rect class="cls-24" x="60.49" y="387.63" width="74.57" height="29.38" rx="3" ry="3" transform="translate(506.83 338.35) rotate(94.77)"/>
    <rect class="cls-10" x="68.31" y="385.44" width="59.74" height="24.1" rx="3" ry="3" transform="translate(502.46 332.73) rotate(94.77)"/>
    <rect class="cls-24" x="53.71" y="387.63" width="74.57" height="29.38" rx="3" ry="3" transform="translate(476.28 255.04) rotate(81.82)"/>
    <rect class="cls-20" x="60.43" y="385.47" width="59.74" height="24.1" rx="3" ry="3" transform="translate(470.95 251.61) rotate(81.82)"/>
    <rect class="cls-24" x="48.25" y="389.46" width="74.57" height="29.38" rx="3" ry="3" transform="translate(421.07 163.16) rotate(66.26)"/>
    <rect class="cls-18" x="53.72" y="387.66" width="59.74" height="24.1" rx="3" ry="3" transform="translate(415.85 162.3) rotate(66.26)"/>
    <rect class="cls-24" x="40.6" y="392.21" width="74.57" height="29.38" rx="3" ry="3" transform="translate(392.15 136.96) rotate(60.17)"/>
    <rect class="cls-17" x="45.61" y="391.5" width="59.74" height="24.1" rx="3" ry="3" transform="translate(388.13 137.47) rotate(60.19)"/>
    <rect class="cls-24" x="34.46" y="397.26" width="74.57" height="29.38" rx="3" ry="3" transform="translate(348.51 98.5) rotate(51.32)"/>
    <rect class="cls-6" x="38.85" y="396.12" width="59.74" height="24.1" rx="3" ry="3" transform="translate(344.43 99.44) rotate(51.32)"/>
    <rect class="cls-19" x="38.85" y="396.12" width="59.74" height="24.1" rx="3" ry="3" transform="translate(344.43 99.44) rotate(51.32)"/>
    <rect class="cls-24" x="29.35" y="403.47" width="74.57" height="29.38" rx="3" ry="3" transform="translate(298.52 63.86) rotate(42.26)"/>
    <rect class="cls-7" x="33.19" y="402.85" width="59.74" height="24.1" rx="3" ry="3" transform="translate(295.4 65.43) rotate(42.26)"/>
    <rect class="cls-24" x="25.35" y="412.26" width="74.57" height="29.38" rx="3" ry="3" transform="translate(258.22 42.3) rotate(35.3)"/>
    <rect class="cls-3" x="28.82" y="412.1" width="59.74" height="24.1" rx="3" ry="3" transform="translate(255.88 44.07) rotate(35.3)"/>
    <rect class="cls-24" x="23.44" y="419.03" width="74.57" height="29.38" rx="3" ry="3" transform="translate(176.42 11.33) rotate(23.29)"/>
    <rect class="cls-14" x="26.41" y="419.75" width="59.74" height="24.1" rx="3" ry="3" transform="translate(175.3 12.93) rotate(23.29)"/>
    <rect class="cls-24" x="21.36" y="424.09" width="74.57" height="29.38" rx="3" ry="3" transform="translate(98.36 -2.12) rotate(12.76)"/>
    <rect class="cls-2" x="23.57" y="425.53" width="60.94" height="24.1" rx="3" ry="3" transform="translate(97.98 -1.13) rotate(12.76)"/>
    <rect class="cls-24" x="21.36" y="433.71" width="74.57" height="29.38" rx="3" ry="3"/>
    <rect class="cls-8" x="24.17" y="436.35" width="59.51" height="24.1" rx="3" ry="3"/>
    <circle class="cls-24" cx="100.24" cy="442.8" r="22.81" transform="translate(-283.75 200.57) rotate(-45)"/>
    <circle class="cls-21" cx="100.24" cy="442.8" r="9.33"/>
  </g>
  <g>
    <path class="cls-9" d="M26.1,318.74h35.66c4.92,0,8.91,3.99,8.91,8.91h0c0,4.92-3.99,8.91-8.91,8.91H26.1v-17.81h0Z"/>
    <rect class="cls-12" x="13.06" y="321.29" width="13.04" height="12.71"/>
    <rect class="cls-21" x="17.95" y="323.15" width="3.26" height="3.18"/>
    <rect class="cls-21" x="17.95" y="328.97" width="3.26" height="3.18"/>
  </g>
  <g>
    <circle class="cls-12" cx="118.89" cy="311.38" r="18.52"/>
    <circle class="cls-23" cx="118.89" cy="311.38" r="9.26"/>
  </g>
  <path class="cls-26" d="M542.51,306.57v-8.32c0-2.29,1.85-4.14,4.14-4.14h0c2.29,0,4.14,1.85,4.14,4.14v16.14c0,1.4-1.14,2.54-2.54,2.54h0c-1.4,0-2.54-1.14-2.54-2.54v-13.84c0-.88.72-1.6,1.6-1.6h0c.88,0,1.6.72,1.6,1.6v8.14"/>
  <path class="cls-25" d="M540.78,272.85l5.88-5.88c1.62-1.62,4.24-1.62,5.86,0h0c1.62,1.62,1.62,4.24,0,5.85l-11.41,11.41c-.99.99-2.6.99-3.59,0h0c-.99-.99-.99-2.6,0-3.59l9.78-9.78c.62-.62,1.64-.62,2.26,0h0c.62.62.62,1.64,0,2.26l-5.76,5.76"/>
  <path class="cls-27" d="M521.1,301.51l-5.88-5.88c-1.62-1.62-1.62-4.24,0-5.86h0c1.62-1.62,4.24-1.62,5.85,0l11.41,11.41c.99.99.99,2.6,0,3.59h0c-.99.99-2.6.99-3.59,0l-9.78-9.78c-.62-.62-.62-1.64,0-2.26h0c.62-.62,1.64-.62,2.26,0l5.76,5.76"/>
  <g>
    <g>
      <polygon class="cls-16" points="497.26 65.06 510.76 91.27 507.42 96.15 490.5 65.06 497.26 65.06"/>
      <polygon class="cls-16" points="547.18 65.06 560.68 91.27 557.34 96.15 540.42 65.06 547.18 65.06"/>
      <path class="cls-1" d="M538.46,63.56c-6.57,1.43-13.39,1.43-19.96,0-10.49-2.28-27.16-4.16-39.58,2.74v10.13c2.74,0,5.08,2.06,5.33,4.79.51,5.73,3.55,14.62,17.46,15.1,0,0,15.92,3.62,24.24-20.62h0c1.65-.47,3.41-.47,5.06,0h0c8.32,24.24,24.24,20.62,24.24,20.62,13.91-.49,16.96-9.37,17.46-15.1.24-2.73,2.59-4.79,5.33-4.79v-10.13c-12.42-6.9-29.09-5.02-39.58-2.74ZM520.49,81.91s-6.15,13.38-20.98,11.21c0,0-14.47-2.17-11.58-20.62,0,0,1.45-10.49,20.98-7.24,0,0,19.53,1.81,11.58,16.64ZM557.46,93.13c-14.83,2.17-20.98-11.21-20.98-11.21-7.96-14.83,11.58-16.64,11.58-16.64,19.53-3.26,20.98,7.24,20.98,7.24,2.89,18.45-11.58,20.62-11.58,20.62Z"/>
    </g>
    <path class="cls-16" d="M487.93,72.51s1.45-10.49,20.98-7.23c0,0,19.53,1.81,11.58,16.64,0,0-6.15,13.38-20.98,11.21,0,0-14.47-2.17-11.58-20.62Z"/>
    <path class="cls-16" d="M569.04,72.51s-1.45-10.49-20.98-7.23c0,0-19.53,1.81-11.58,16.64,0,0,6.15,13.38,20.98,11.21,0,0,14.47-2.17,11.58-20.62Z"/>
  </g>
  <g>
    <path class="cls-9" d="M277.65,40.91v-3.68l11.99-.12c.75,0,1.36.48,1.36,1.09v12.64c0,.6-.59,1.08-1.33,1.09l-11.2.12v-5.34l-2.07.37-.12,6.14h14.31c1.76,0,3.19-1.15,3.2-2.57l.08-12.26c0-1.44-1.43-2.6-3.2-2.6h-14.9v5.12h1.87Z"/>
    <path class="cls-9" d="M285.96,47.11h-4.13c-.97,0-1.75-.78-1.75-1.75h0c0-.97.78-1.75,1.75-1.75h4.13c.97,0,1.75.78,1.75,1.75h0c0,.97-.78,1.75-1.75,1.75Z"/>
    <path class="cls-4" d="M275.43,35.75h-135.29c-4.67,0-8.46,3.93-8.46,8.78s3.79,8.78,8.46,8.78h135.29c4.67,0,8.46-3.93,8.46-8.78s-3.79-8.78-8.46-8.78ZM143.5,47.03c-1.6,0-2.89-1.34-2.89-3s1.29-3,2.89-3,2.89,1.34,2.89,3-1.29,3-2.89,3ZM155.7,47.03c-1.6,0-2.89-1.34-2.89-3s1.29-3,2.89-3,2.89,1.34,2.89,3-1.29,3-2.89,3ZM169.51,47.03c-1.6,0-2.89-1.34-2.89-3s1.29-3,2.89-3,2.89,1.34,2.89,3-1.29,3-2.89,3Z"/>
    <circle class="cls-9" cx="212.38" cy="42.78" r="20.97" transform="translate(19.55 141.54) rotate(-38.51)"/>
    <circle class="cls-12" cx="212.38" cy="42.78" r="16.6" transform="translate(31.95 162.7) rotate(-45)"/>
    <path class="cls-1" d="M214.03,42.76c0,1.85-1.5,3.34-3.34,3.34s-3.34-1.5-3.34-3.34,1.5-3.34,3.34-3.34,3.34,1.5,3.34,3.34Z"/>
    <path class="cls-1" d="M222.33,44.53h-12.36c-.97,0-1.75-.78-1.75-1.75h0c0-.97.78-1.75,1.75-1.75h12.36c.97,0,1.75.78,1.75,1.75h0c0,.97-.78,1.75-1.75,1.75Z"/>
    <path class="cls-1" d="M208.94,44.35v-12.36c0-.97.78-1.75,1.75-1.75h0c.97,0,1.75.78,1.75,1.75v12.36c0,.97-.78,1.75-1.75,1.75h0c-.97,0-1.75-.78-1.75-1.75Z"/>
  </g>
  <g>
    <rect class="cls-9" x="407.72" y="10.81" width="115.9" height="19.43"/>
    <line class="cls-30" x1="415.28" y1="30.24" x2="415.28" y2="22.15"/>
    <line class="cls-30" x1="425.28" y1="30.24" x2="425.28" y2="22.15"/>
    <line class="cls-30" x1="435.91" y1="30.24" x2="435.91" y2="22.15"/>
    <line class="cls-30" x1="445.91" y1="30.24" x2="445.91" y2="22.15"/>
    <line class="cls-30" x1="454.66" y1="30.24" x2="454.66" y2="22.15"/>
    <line class="cls-30" x1="464.66" y1="30.24" x2="464.66" y2="22.15"/>
    <line class="cls-30" x1="475.28" y1="30.24" x2="475.28" y2="22.15"/>
    <line class="cls-30" x1="485.28" y1="30.24" x2="485.28" y2="22.15"/>
    <line class="cls-30" x1="495.45" y1="30.24" x2="495.45" y2="22.15"/>
    <line class="cls-30" x1="505.45" y1="30.24" x2="505.45" y2="22.15"/>
    <line class="cls-30" x1="516.07" y1="30.24" x2="516.07" y2="22.15"/>
  </g>
  <g>
    <path class="cls-23" d="M319.65,3.44v73.07c0,1.37,1.11,2.49,2.49,2.49h110.63c2.47,0,3.43-3.2,1.37-4.56L323.51,1.36c-1.65-1.09-3.86.09-3.86,2.08ZM336.43,27.46l55.02,36.34c.45.3.24,1-.3,1h-56.09c-1.37,0-2.49-1.11-2.49-2.49V29.53c0-1.98,2.21-3.17,3.86-2.08Z"/>
    <line class="cls-28" x1="325.32" y1="79" x2="325.32" y2="73.31"/>
    <line class="cls-28" x1="335.32" y1="79" x2="335.32" y2="73.31"/>
    <line class="cls-28" x1="345.95" y1="79" x2="345.95" y2="73.31"/>
    <line class="cls-28" x1="355.95" y1="79" x2="355.95" y2="73.31"/>
    <line class="cls-28" x1="364.7" y1="79" x2="364.7" y2="73.31"/>
    <line class="cls-28" x1="374.7" y1="79" x2="374.7" y2="73.31"/>
    <line class="cls-28" x1="385.32" y1="79" x2="385.32" y2="73.31"/>
    <line class="cls-28" x1="395.32" y1="79" x2="395.32" y2="73.31"/>
    <line class="cls-28" x1="405.49" y1="79" x2="405.49" y2="73.31"/>
    <line class="cls-28" x1="415.49" y1="79" x2="415.49" y2="73.31"/>
    <line class="cls-28" x1="426.11" y1="79" x2="426.11" y2="73.31"/>
  </g>
  <g>
    <g>
      <rect class="cls-4" x="85.64" y="22.35" width="9.68" height="23.3" rx=".33" ry=".33" transform="translate(50.54 -54.02) rotate(45)"/>
      <circle class="cls-15" cx="60.73" cy="63.75" r="29.75" transform="translate(-9.89 11.16) rotate(-9.71)"/>
      <polygon class="cls-13" points="44.28 35.75 74.95 93.5 60.73 97.86 34.28 46.1 44.28 35.75"/>
      <path class="cls-9" d="M60.73,29.65c-18.84,0-34.11,15.27-34.11,34.1s15.27,34.1,34.11,34.1,34.1-15.27,34.1-34.1-15.27-34.1-34.1-34.1ZM60.73,93.5c-16.43,0-29.75-13.32-29.75-29.75s13.32-29.75,29.75-29.75,29.75,13.32,29.75,29.75-13.32,29.75-29.75,29.75Z"/>
    </g>
    <path class="cls-23" d="M89.27,36.27h0c-4.43-4.43-4.43-11.6,0-16.03L106.19,3.32c4.43-4.43,11.6-4.43,16.03,0h0c4.43,4.43,4.43,11.6,0,16.03l-16.92,16.92c-4.43,4.43-11.6,4.43-16.03,0Z"/>
  </g>
</svg>