<?xml version="1.0" encoding="UTF-8"?>
<svg id="Object" xmlns="http://www.w3.org/2000/svg" viewBox="0 0 145.94 136.44">
  <defs>
    <style>
      .cls-1 {
        fill: #707274;
      }

      .cls-1, .cls-2, .cls-3, .cls-4, .cls-5 {
        stroke-width: 0px;
      }

      .cls-2 {
        fill: #5272b0;
      }

      .cls-3 {
        fill: #606060;
      }

      .cls-4 {
        fill: #3966a5;
      }

      .cls-5 {
        fill: #2d568e;
      }
    </style>
  </defs>
  <polygon class="cls-1" points="145.94 136.44 0 136.44 0 84.43 21.98 84.43 21.98 114.46 123.96 114.46 123.96 84.43 145.94 84.43 145.94 136.44"/>
  <path class="cls-3" d="M30.59,136.44s88.99-3.15,115.35-32.26v32.26H30.59Z"/>
  <g>
    <polygon class="cls-4" points="48.41 45.64 48.41 100.24 97.53 100.24 97.53 45.64 118.61 45.64 72.97 0 27.33 45.64 48.41 45.64"/>
    <path class="cls-5" d="M48.41,100.24s40.87-5.42,49.13-24.76v24.76h-49.13Z"/>
    <path class="cls-2" d="M41.26,35.61L72.97,3.44l6.57,6.12s-11.45,3.75-38.29,26.05Z"/>
  </g>
</svg>